<svg width="55" height="51" viewBox="0 0 55 51" fill="none" xmlns="http://www.w3.org/2000/svg">
<path d="M7.15858 31.6304C5.08369 30.578 3.56072 28.2765 3.39401 25.9336C3.19057 23.0724 4.87742 19.8106 7.53721 18.6443C5.44159 14.9311 7.84896 10.3967 11.7765 9.28873C12.4744 9.09216 13.2062 9.06959 13.9041 8.87395C15.0758 5.60744 18.0539 3.03787 21.6998 3.42068C24.2277 3.68591 25.6179 6.02974 25.8044 8.40086C25.8571 9.0677 25.811 9.61887 25.8044 10.2236C25.7347 17.4009 26.9129 22.7856 18.3854 24.4475C17.939 24.535 16.0101 24.7137 15.8227 24.898C15.6625 25.0551 15.7012 25.2902 15.865 25.4247C16.1099 25.6251 18.3044 25.8197 18.8432 25.9307C25.0895 27.2146 25.5727 30.3654 25.7498 36.0773C25.8147 38.1729 26.1434 41.4328 25.6678 43.3835C24.7787 47.03 20.4443 47.7147 17.4558 46.2211C15.6654 45.3257 14.3392 43.5622 13.5217 41.7742C8.3585 41.3848 5.42275 36.4451 7.15764 31.6314L7.15858 31.6304Z" fill="black"/>
<path d="M7.15858 31.6304C5.08369 30.578 3.56072 28.2765 3.39401 25.9336C3.19057 23.0724 4.87742 19.8106 7.53721 18.6443C5.44159 14.9311 7.84896 10.3967 11.7765 9.28873C12.4744 9.09216 13.2062 9.06959 13.9041 8.87395C15.0758 5.60744 18.0539 3.03787 21.6998 3.42068C24.2277 3.68591 25.6179 6.02974 25.8044 8.40086C25.8571 9.0677 25.811 9.61887 25.8044 10.2236C25.7347 17.4009 26.9129 22.7856 18.3854 24.4475C17.939 24.535 16.0101 24.7137 15.8227 24.898C15.6625 25.0551 15.7012 25.2902 15.865 25.4247C16.1099 25.6251 18.3044 25.8197 18.8432 25.9307C25.0895 27.2146 25.5727 30.3654 25.7498 36.0773C25.8147 38.1729 26.1434 41.4328 25.6678 43.3835C24.7787 47.03 20.4443 47.7147 17.4558 46.2211C15.6654 45.3257 14.3392 43.5622 13.5217 41.7742C8.3585 41.3848 5.42275 36.4451 7.15764 31.6314L7.15858 31.6304Z" fill="url(#paint0_linear_1878_6808)"/>
<path d="M46.4897 18.641C49.5677 20.2484 51.408 24.2749 50.3438 27.6411C49.7796 29.4253 48.3772 30.9246 46.7562 31.7946C47.2762 33.7584 47.4673 35.4147 46.6837 37.3419C45.5808 40.0525 43.035 41.5311 40.1897 41.8142C39.6095 43.2005 38.727 44.4938 37.5205 45.4042C33.7738 48.2325 28.3826 47.2863 28.0181 42.0267C27.8684 39.8673 27.9852 36.9732 28.1123 34.7864C28.2159 33.0013 28.4184 30.7844 29.3198 29.2203C31.0566 26.2058 35.0754 25.8908 38.1882 25.5202C38.1788 25.3114 38.2787 24.9737 38.03 24.8806C34.8758 24.4301 31.1639 24.0021 29.3904 20.999C28.0558 18.7389 28.199 16.2295 28.1152 13.7135C28.004 10.353 27.0782 4.71722 31.4267 3.57822C35.2224 2.585 38.9135 5.43015 40.0682 8.92427C43.9364 9.15471 47.4551 12.3008 47.1349 16.3489C47.0689 17.1813 46.7026 17.8585 46.4888 18.641H46.4897Z" fill="black"/>
<path d="M46.4897 18.641C49.5677 20.2484 51.408 24.2749 50.3438 27.6411C49.7796 29.4253 48.3772 30.9246 46.7562 31.7946C47.2762 33.7584 47.4673 35.4147 46.6837 37.3419C45.5808 40.0525 43.035 41.5311 40.1897 41.8142C39.6095 43.2005 38.727 44.4938 37.5205 45.4042C33.7738 48.2325 28.3826 47.2863 28.0181 42.0267C27.8684 39.8673 27.9852 36.9732 28.1123 34.7864C28.2159 33.0013 28.4184 30.7844 29.3198 29.2203C31.0566 26.2058 35.0754 25.8908 38.1882 25.5202C38.1788 25.3114 38.2787 24.9737 38.03 24.8806C34.8758 24.4301 31.1639 24.0021 29.3904 20.999C28.0558 18.7389 28.199 16.2295 28.1152 13.7135C28.004 10.353 27.0782 4.71722 31.4267 3.57822C35.2224 2.585 38.9135 5.43015 40.0682 8.92427C43.9364 9.15471 47.4551 12.3008 47.1349 16.3489C47.0689 17.1813 46.7026 17.8585 46.4888 18.641H46.4897Z" fill="url(#paint1_linear_1878_6808)"/>
<defs>
<linearGradient id="paint0_linear_1878_6808" x1="24.2629" y1="47.8708" x2="17.0063" y2="-9.44298" gradientUnits="userSpaceOnUse">
<stop offset="0.0192308" stop-color="#F0B9FF"/>
<stop offset="0.182692" stop-color="#F0B9FF"/>
<stop offset="0.413462" stop-color="#C4CFFF"/>
<stop offset="0.629808" stop-color="#C4CFFF"/>
<stop offset="0.826923" stop-color="#9CB0FF"/>
</linearGradient>
<linearGradient id="paint1_linear_1878_6808" x1="48.9779" y1="47.8772" x2="41.7661" y2="-9.46308" gradientUnits="userSpaceOnUse">
<stop offset="0.0192308" stop-color="#F0B9FF"/>
<stop offset="0.182692" stop-color="#F0B9FF"/>
<stop offset="0.413462" stop-color="#C4CFFF"/>
<stop offset="0.629808" stop-color="#C4CFFF"/>
<stop offset="0.826923" stop-color="#9CB0FF"/>
</linearGradient>
</defs>
</svg>
